# Blender 3.4.1
# www.blender.org
mtllib hammer.mtl
o Cube.004
v -1.000000 17.549999 1.000000
v 0.000000 19.549999 0.000000
v -1.000000 17.549999 -1.000000
v 1.000000 17.549999 1.000000
v 1.000000 17.549999 -1.000000
v 0.000000 -1.821911 -1.500000
v 0.000000 -1.821911 1.500000
v 0.390181 -1.860340 -1.500000
v 0.390181 -1.860340 1.500000
v 0.765367 -1.974152 -1.500000
v 0.765367 -1.974152 1.500000
v 1.111140 -2.158972 -1.500000
v 1.111140 -2.158972 1.500000
v 1.414214 -2.407698 -1.500000
v 1.414214 -2.407698 1.500000
v 1.662939 -2.710770 -1.500000
v 1.662939 -2.710770 1.500000
v 1.847759 -3.056543 -1.500000
v 1.847759 -3.056543 1.500000
v 1.961571 -3.431730 -1.500000
v 1.961571 -3.431730 1.500000
v 2.000000 -3.821911 -1.500000
v 2.000000 -3.821911 1.500000
v 1.961571 -4.212091 -1.500000
v 1.961571 -4.212091 1.500000
v 1.847759 -4.587278 -1.500000
v 1.847759 -4.587278 1.500000
v 1.662939 -4.933052 -1.500000
v 1.662939 -4.933052 1.500000
v 1.414214 -5.236124 -1.500000
v 1.414214 -5.236124 1.500000
v 1.111140 -5.484850 -1.500000
v 1.111140 -5.484850 1.500000
v 0.765367 -5.669670 -1.500000
v 0.765367 -5.669670 1.500000
v 0.390181 -5.783482 -1.500000
v 0.390181 -5.783482 1.500000
v 0.000000 -5.821911 -1.500000
v 0.000000 -5.821911 1.500000
v -0.390181 -5.783482 -1.500000
v -0.390181 -5.783482 1.500000
v -0.765367 -5.669670 -1.500000
v -0.765367 -5.669670 1.500000
v -1.111140 -5.484850 -1.500000
v -1.111140 -5.484850 1.500000
v -1.414214 -5.236124 -1.500000
v -1.414214 -5.236124 1.500000
v -1.662939 -4.933052 -1.500000
v -1.662939 -4.933052 1.500000
v -1.847759 -4.587278 -1.500000
v -1.847759 -4.587278 1.500000
v -1.961571 -4.212091 -1.500000
v -1.961571 -4.212091 1.500000
v -2.000000 -3.821911 -1.500000
v -2.000000 -3.821911 1.500000
v -1.961571 -3.431730 -1.500000
v -1.961571 -3.431730 1.500000
v -1.847759 -3.056543 -1.500000
v -1.847759 -3.056543 1.500000
v -1.662939 -2.710770 -1.500000
v -1.662939 -2.710770 1.500000
v -1.414214 -2.407698 -1.500000
v -1.414214 -2.407698 1.500000
v -1.111140 -2.158972 -1.500000
v -1.111140 -2.158972 1.500000
v -0.765367 -1.974152 -1.500000
v -0.765367 -1.974152 1.500000
v -0.390181 -1.860340 -1.500000
v -0.390181 -1.860340 1.500000
v -1.000000 -3.949999 1.000000
v -1.000000 14.050001 1.000000
v -1.000000 -3.949999 -1.000000
v -1.000000 14.050001 -1.000000
v 1.000000 -3.949999 1.000000
v 1.000000 14.050001 1.000000
v 1.000000 -3.949999 -1.000000
v 1.000000 14.050001 -1.000000
v -2.450000 12.800000 -2.500000
v -2.450000 18.799999 -2.500000
v -2.450000 12.800000 2.500000
v -2.450000 18.799999 2.500000
v -7.819366 12.800000 -2.500000
v -7.820422 18.799999 -2.500000
v -7.819366 12.800000 2.500000
v -7.820421 18.799999 2.500000
v -8.140542 15.800000 2.500000
v -7.819366 12.800000 0.000000
v -7.820422 18.799999 0.000000
v -8.140543 15.800000 -2.500000
v -8.450000 15.800000 0.000000
v -2.500000 14.000000 2.000000
v -2.500000 17.600000 2.000000
v -2.500000 14.000000 -2.000000
v -2.500000 17.600000 -2.000000
v 2.500000 14.000000 2.000000
v 2.500000 17.600000 2.000000
v 2.500000 14.000000 -2.000000
v 2.500000 17.600000 -2.000000
v 2.450000 12.800000 2.500000
v 2.450000 18.799999 2.500000
v 2.450000 12.800000 -2.500000
v 2.450000 18.799999 -2.500000
v 7.818587 12.800000 2.500000
v 7.820422 18.799999 2.500000
v 7.818589 12.800000 -2.500000
v 7.820422 18.799999 -2.500000
v 8.140543 15.800000 -2.500000
v 7.818589 12.800000 0.000000
v 7.820422 18.799999 0.000000
v 8.140543 15.800000 2.500000
v 8.450000 15.800000 0.000000
vn -0.8944 0.4472 -0.0000
vn -0.0000 0.4472 -0.8944
vn 0.8944 0.4472 -0.0000
vn -0.0000 0.4472 0.8944
vn -0.0000 -1.0000 -0.0000
vn 0.0980 0.9952 -0.0000
vn 0.2903 0.9569 -0.0000
vn 0.4714 0.8819 -0.0000
vn 0.6344 0.7730 -0.0000
vn 0.7730 0.6344 -0.0000
vn 0.8819 0.4714 -0.0000
vn 0.9569 0.2903 -0.0000
vn 0.9952 0.0980 -0.0000
vn 0.9952 -0.0980 -0.0000
vn 0.9569 -0.2903 -0.0000
vn 0.8819 -0.4714 -0.0000
vn 0.7730 -0.6344 -0.0000
vn 0.6344 -0.7730 -0.0000
vn 0.4714 -0.8819 -0.0000
vn 0.2903 -0.9569 -0.0000
vn 0.0980 -0.9952 -0.0000
vn -0.0980 -0.9952 -0.0000
vn -0.2903 -0.9569 -0.0000
vn -0.4714 -0.8819 -0.0000
vn -0.6344 -0.7730 -0.0000
vn -0.7730 -0.6344 -0.0000
vn -0.8819 -0.4714 -0.0000
vn -0.9569 -0.2903 -0.0000
vn -0.9952 -0.0980 -0.0000
vn -0.9952 0.0980 -0.0000
vn -0.9569 0.2903 -0.0000
vn -0.8819 0.4714 -0.0000
vn -0.7730 0.6344 -0.0000
vn -0.6344 0.7730 -0.0000
vn -0.4714 0.8819 -0.0000
vn -0.0000 -0.0000 1.0000
vn -0.2903 0.9569 -0.0000
vn -0.0980 0.9952 -0.0000
vn -0.0000 -0.0000 -1.0000
vn -1.0000 -0.0000 -0.0000
vn 1.0000 -0.0000 -0.0000
vn -0.0000 1.0000 -0.0000
vn -0.9859 0.1560 -0.0610
vn -0.9859 0.1560 0.0610
vn 0.9859 0.1560 0.0610
vn 0.9859 0.1560 -0.0610
vn 0.3714 0.9285 -0.0000
vn 0.9858 -0.1566 -0.0610
vn 0.9858 -0.1566 0.0610
vn -0.9858 -0.1564 0.0610
vn -0.9858 -0.1564 -0.0610
vt 0.375000 0.000000
vt 0.375000 1.000000
vt 0.125000 0.750000
vt 0.625000 0.250000
vt 0.625000 0.500000
vt 0.625000 0.750000
vt 0.625000 1.000000
vt 0.375000 0.250000
vt 0.125000 0.500000
vt 0.375000 0.750000
vt 0.375000 0.500000
vt 1.000000 0.500000
vt 0.000000 0.500000
vt 0.750000 0.490000
vt 1.000000 1.000000
vt 0.250000 0.490000
vt 0.000000 1.000000
vt 0.968750 0.500000
vt 0.796822 0.485388
vt 0.968750 1.000000
vt 0.296822 0.485388
vt 0.937500 0.500000
vt 0.841844 0.471731
vt 0.937500 1.000000
vt 0.341844 0.471731
vt 0.906250 0.500000
vt 0.883337 0.449553
vt 0.906250 1.000000
vt 0.383337 0.449553
vt 0.875000 0.500000
vt 0.919706 0.419706
vt 0.875000 1.000000
vt 0.419706 0.419706
vt 0.843750 0.500000
vt 0.949553 0.383337
vt 0.843750 1.000000
vt 0.449553 0.383337
vt 0.812500 0.500000
vt 0.971731 0.341844
vt 0.812500 1.000000
vt 0.471731 0.341844
vt 0.781250 0.500000
vt 0.985388 0.296822
vt 0.781250 1.000000
vt 0.485388 0.296822
vt 0.750000 0.500000
vt 0.990000 0.250000
vt 0.750000 1.000000
vt 0.490000 0.250000
vt 0.718750 0.500000
vt 0.985388 0.203178
vt 0.718750 1.000000
vt 0.485388 0.203178
vt 0.687500 0.500000
vt 0.971731 0.158156
vt 0.687500 1.000000
vt 0.471731 0.158156
vt 0.656250 0.500000
vt 0.949553 0.116663
vt 0.656250 1.000000
vt 0.449553 0.116663
vt 0.625000 0.500000
vt 0.919706 0.080294
vt 0.625000 1.000000
vt 0.419706 0.080294
vt 0.593750 0.500000
vt 0.883337 0.050447
vt 0.593750 1.000000
vt 0.383337 0.050447
vt 0.562500 0.500000
vt 0.841844 0.028269
vt 0.562500 1.000000
vt 0.341844 0.028269
vt 0.531250 0.500000
vt 0.796822 0.014612
vt 0.531250 1.000000
vt 0.296822 0.014612
vt 0.500000 0.500000
vt 0.750000 0.010000
vt 0.500000 1.000000
vt 0.250000 0.010000
vt 0.468750 0.500000
vt 0.703178 0.014612
vt 0.468750 1.000000
vt 0.203178 0.014612
vt 0.437500 0.500000
vt 0.658156 0.028269
vt 0.437500 1.000000
vt 0.158156 0.028269
vt 0.406250 0.500000
vt 0.616663 0.050447
vt 0.406250 1.000000
vt 0.116663 0.050447
vt 0.375000 0.500000
vt 0.580294 0.080294
vt 0.375000 1.000000
vt 0.080294 0.080294
vt 0.343750 0.500000
vt 0.550447 0.116663
vt 0.343750 1.000000
vt 0.050447 0.116663
vt 0.312500 0.500000
vt 0.528269 0.158156
vt 0.312500 1.000000
vt 0.028269 0.158156
vt 0.281250 0.500000
vt 0.514612 0.203178
vt 0.281250 1.000000
vt 0.014612 0.203178
vt 0.250000 0.500000
vt 0.510000 0.250000
vt 0.250000 1.000000
vt 0.010000 0.250000
vt 0.218750 0.500000
vt 0.514612 0.296822
vt 0.218750 1.000000
vt 0.014612 0.296822
vt 0.187500 0.500000
vt 0.528269 0.341844
vt 0.187500 1.000000
vt 0.028269 0.341844
vt 0.156250 0.500000
vt 0.550447 0.383337
vt 0.156250 1.000000
vt 0.050447 0.383337
vt 0.125000 0.500000
vt 0.580294 0.419706
vt 0.125000 1.000000
vt 0.080294 0.419706
vt 0.093750 0.500000
vt 0.616663 0.449553
vt 0.093750 1.000000
vt 0.116663 0.449553
vt 0.062500 0.500000
vt 0.658156 0.471731
vt 0.158156 0.471731
vt 0.062500 1.000000
vt 0.031250 0.500000
vt 0.703178 0.485388
vt 0.203178 0.485388
vt 0.031250 1.000000
vt 0.375000 0.000000
vt 0.375000 1.000000
vt 0.125000 0.750000
vt 0.625000 0.000000
vt 0.625000 1.000000
vt 0.875000 0.750000
vt 0.375000 0.250000
vt 0.125000 0.500000
vt 0.625000 0.250000
vt 0.875000 0.500000
vt 0.375000 0.750000
vt 0.625000 0.750000
vt 0.375000 0.500000
vt 0.625000 0.500000
vt 0.375000 0.000000
vt 0.375000 1.000000
vt 0.625000 0.000000
vt 0.625000 1.000000
vt 0.875000 0.750000
vt 0.375000 0.250000
vt 0.625000 0.250000
vt 0.875000 0.500000
vt 0.000000 0.000000
vt 0.375000 0.750000
vt 0.625000 0.750000
vt 0.375000 0.500000
vt 0.000000 0.000000
vt 0.625000 0.500000
vt 0.500000 0.500000
vt 0.000000 0.000000
vt 0.625000 0.625000
vt 0.500000 0.750000
vt 0.500000 0.625000
vt 0.375000 0.000000
vt 0.375000 1.000000
vt 0.125000 0.750000
vt 0.625000 0.000000
vt 0.625000 1.000000
vt 0.875000 0.750000
vt 0.375000 0.250000
vt 0.125000 0.500000
vt 0.625000 0.250000
vt 0.875000 0.500000
vt 0.375000 0.750000
vt 0.625000 0.750000
vt 0.375000 0.500000
vt 0.625000 0.500000
vt 0.375000 0.000000
vt 0.375000 1.000000
vt 0.625000 0.000000
vt 0.625000 1.000000
vt 0.875000 0.750000
vt 0.375000 0.250000
vt 0.625000 0.250000
vt 0.875000 0.500000
vt 0.000000 0.000000
vt 0.375000 0.750000
vt 0.625000 0.750000
vt 0.375000 0.500000
vt 0.000000 0.000000
vt 0.625000 0.500000
vt 0.500000 0.500000
vt 0.000000 0.000000
vt 0.625000 0.625000
vt 0.500000 0.750000
vt 0.500000 0.625000
s 0
usemtl Material.001
f 1/1/1 2/4/1 3/8/1
f 3/8/2 2/5/2 5/11/2
f 5/11/3 2/6/3 4/10/3
f 4/10/4 2/7/4 1/2/4
f 3/9/5 5/11/5 4/10/5 1/3/5
f 6/12/6 7/15/6 9/20/6 8/18/6
f 8/18/7 9/20/7 11/24/7 10/22/7
f 10/22/8 11/24/8 13/28/8 12/26/8
f 12/26/9 13/28/9 15/32/9 14/30/9
f 14/30/10 15/32/10 17/36/10 16/34/10
f 16/34/11 17/36/11 19/40/11 18/38/11
f 18/38/12 19/40/12 21/44/12 20/42/12
f 20/42/13 21/44/13 23/48/13 22/46/13
f 22/46/14 23/48/14 25/52/14 24/50/14
f 24/50/15 25/52/15 27/56/15 26/54/15
f 26/54/16 27/56/16 29/60/16 28/58/16
f 28/58/17 29/60/17 31/64/17 30/62/17
f 30/62/18 31/64/18 33/68/18 32/66/18
f 32/66/19 33/68/19 35/72/19 34/70/19
f 34/70/20 35/72/20 37/76/20 36/74/20
f 36/74/21 37/76/21 39/80/21 38/78/21
f 38/78/22 39/80/22 41/84/22 40/82/22
f 40/82/23 41/84/23 43/88/23 42/86/23
f 42/86/24 43/88/24 45/92/24 44/90/24
f 44/90/25 45/92/25 47/96/25 46/94/25
f 46/94/26 47/96/26 49/100/26 48/98/26
f 48/98/27 49/100/27 51/104/27 50/102/27
f 50/102/28 51/104/28 53/108/28 52/106/28
f 52/106/29 53/108/29 55/112/29 54/110/29
f 54/110/30 55/112/30 57/116/30 56/114/30
f 56/114/31 57/116/31 59/120/31 58/118/31
f 58/118/32 59/120/32 61/124/32 60/122/32
f 60/122/33 61/124/33 63/128/33 62/126/33
f 62/126/34 63/128/34 65/132/34 64/130/34
f 64/130/35 65/132/35 67/137/35 66/134/35
f 9/21/36 7/16/36 69/140/36 67/136/36 65/133/36 63/129/36 61/125/36 59/121/36 57/117/36 55/113/36 53/109/36 51/105/36 49/101/36 47/97/36 45/93/36 43/89/36 41/85/36 39/81/36 37/77/36 35/73/36 33/69/36 31/65/36 29/61/36 27/57/36 25/53/36 23/49/36 21/45/36 19/41/36 17/37/36 15/33/36 13/29/36 11/25/36
f 66/134/37 67/137/37 69/141/37 68/138/37
f 68/138/38 69/141/38 7/17/38 6/13/38
f 6/14/39 8/19/39 10/23/39 12/27/39 14/31/39 16/35/39 18/39/39 20/43/39 22/47/39 24/51/39 26/55/39 28/59/39 30/63/39 32/67/39 34/71/39 36/75/39 38/79/39 40/83/39 42/87/39 44/91/39 46/95/39 48/99/39 50/103/39 52/107/39 54/111/39 56/115/39 58/119/39 60/123/39 62/127/39 64/131/39 66/135/39 68/139/39
f 70/142/40 71/145/40 73/150/40 72/148/40
f 72/148/39 73/150/39 77/155/39 76/154/39
f 76/154/41 77/155/41 75/153/41 74/152/41
f 74/152/36 75/153/36 71/146/36 70/143/36
f 72/149/5 76/154/5 74/152/5 70/144/5
f 77/155/42 73/151/42 71/147/42
f 78/156/41 79/158/41 81/162/41 80/161/41
f 80/161/36 81/162/36 85/169/36 86/170/36 84/167/36
f 90/174/43 88/172/43 83/166/43 89/173/43
f 82/165/39 89/173/39 83/166/39 79/159/39 78/157/39
f 85/169/42 81/163/42 79/160/42 83/166/42 88/172/42
f 86/170/44 85/169/44 88/172/44 90/174/44
f 84/168/42 82/164/42 87/171/42
f 91/175/40 92/178/40 94/183/40 93/181/40
f 93/181/39 94/183/39 98/188/39 97/187/39
f 97/187/41 98/188/41 96/186/41 95/185/41
f 95/185/36 96/186/36 92/179/36 91/176/36
f 93/182/5 97/187/5 95/185/5 91/177/5
f 98/188/42 94/184/42 92/180/42 96/186/42
f 99/189/40 100/191/40 102/195/40 101/194/40
f 101/194/39 102/195/39 106/202/39 107/203/39 105/200/39
f 111/207/45 109/205/45 104/199/45 110/206/45
f 103/198/36 110/206/36 104/199/36 100/192/36 99/190/36
f 106/202/42 102/196/42 100/193/42 104/199/42 109/205/42
f 107/203/46 106/202/46 109/205/46 111/207/46
f 105/201/47 103/197/47 108/204/47
f 105/201/48 107/203/48 111/207/48 108/204/48
f 108/204/49 111/207/49 110/206/49 103/197/49
f 84/168/50 86/170/50 90/174/50 87/171/50
f 87/171/51 90/174/51 89/173/51 82/164/51
f 78/157/5 80/161/5 84/168/5 82/165/5
f 99/190/5 101/194/5 105/201/5 103/198/5
f 75/153/42 77/155/42 71/147/42
